<svg xmlns="http://www.w3.org/2000/svg" viewBox="0 0 750 500"><g id="freepik--Floor--inject-2"><ellipse cx="372.65" cy="412.68" rx="337" ry="59.64" style="opacity:.3;"></ellipse></g><g id="freepik--Car--inject-2"><g><path d="M310.57,438.27l369.4-89.87,10.33-28.16s.47-18.54-7.83-35.84c-8.3-17.3-39.37-12.4-53.59,2.19-14.22,14.58-25.16,26.25-25.16,26.25l-168.74,31.54s-22.31-27.9-48.57-27.9-47.4,35-56.88,63.44c-9.48,28.44-18.96,58.34-18.96,58.34Z" style="fill:#263238; stroke:#263238; stroke-linecap:round; stroke-linejoin:round;"></path><g><path d="M628.88,286.6c-17.83,0-33.86,26.12-33.86,60.26s14.46,61.81,32.29,61.81l34.54,1.56v-123.62h-32.97Z" style="fill:#263238; stroke:#263238; stroke-linecap:round; stroke-linejoin:round;"></path><g><ellipse cx="661.85" cy="348.41" rx="32.29" ry="61.81" style="fill:#5e5e5e; stroke:#263238; stroke-linecap:round; stroke-linejoin:round;"></ellipse><g><ellipse cx="664.1" cy="350.09" rx="27.03" ry="54.36" style="fill:#263238; stroke:#263238; stroke-linecap:round; stroke-linejoin:round;"></ellipse><path d="M658.14,297.07c-1.06,.48-2.1,1.08-3.11,1.8l4.53,6.9s9.16,7.19,8.77,10.91c-.38,3.72-3.05,7.93-4.2,9.42-1.14,1.49-7.44,6.44-7.44,6.44l-1.72,6.94s8.01-3.97,9.54-7.44c1.53-3.47,9.16-23.55,8.77-27.02-.38-3.47-1.34-4.96-1.34-4.96l-2.76-3.36c-.3-.11-.59-.23-.89-.32l-10.17,.68Zm12.68,12.42l-8.64-9.03c-1.34,.46-2.42,.85-2.42,.85l2.29-.99,.13,.14c1.84-.63,4.16-1.38,4.83-1.38,1.14,0,3.05,1.74,3.81,4.96,.76,3.22,0,5.45,0,5.45Z" style="fill:#999; stroke:#263238; stroke-linecap:round; stroke-linejoin:round;"></path><path d="M652.31,396s7.06-2.73,8.01-3.47c.95-.74,.19,3.72-1.14,5.7-1.34,1.98-2.48,2.73-2.48,2.73l-4.39-4.96Z" style="fill:#fff; stroke:#263238; stroke-linecap:round; stroke-linejoin:round;"></path><path d="M682.98,311.22l-.15,.5s-3.62-1.74-3.62-.25-2.48,5.21-3.05,5.7c-.57,.5-6.1,8.43-6.1,8.43l-8.77,13.88,21.94-20.57s-.19-3.47,1.72,5.7c1.91,9.17,1.53,14.38,1.53,15.12s-10.3,4.96-9.16,5.95c1.14,.99,.95,2.97,2.67,2.73s9.35-1.98,9.35-1.98l-3.43,9.67v10.41s-10.49-8.68-16.4-10.16c-5.91-1.49-12.02-.25-12.02-.25l1.91,11.9s-5.15-7.93-6.1-8.92-2.48,.25-2.48,.25l-2.48,2.97s-.95,10.16-2.48,11.9c-.78,.89-2.11,1.64-3.22,2.17-.98-3.23-2.5-9.85-2.5-9.85-.76-3.72-.38-5.7-.38-5.7l6.29,1.74s4.58-6.2,4.77-6.94c.19-.74,.19-5.21-.38-7.44-.57-2.23-2.29-3.47-2.29-3.47l2.86-7.19-1.34-.74-3.24,8.92,.19,9.17-7.44-2.73c-.19-14.38,2.67-24.04,2.67-24.04l5.15-.74s1.91-.25,2.48,.25c.57,.5,3.81,10.41,3.81,10.41l.76-2.48s-2.29-8.68-4.2-14.62c-1.91-5.95-4.77-3.97-4.77-3.97,1.72-5.21,5.53-10.41,5.53-10.41l3.43,5.45,5.15-2.97-.95-3.97-3.19-6.16c-10.47,7.49-17.96,27.59-17.96,51.22,0,9.87,1.32,19.1,3.6,27.08h0c.03,.12,.06,.22,.1,.33,.03,.1,.06,.21,.09,.31h0c4.71,15.94,13.35,26.63,23.24,26.63,14.93,0,27.03-24.34,27.03-54.36,0-15.23-3.12-29-8.14-38.87Zm-33.72,80.56c-.76-.99-4.2-7.93-4.2-7.93,0,0,4.39-4.96,5.53-6.69,1.14-1.74,1.53-13.39,1.53-13.39,0,0,6.68,11.9,7.82,15.86,1.14,3.97,.38,5.45-.76,7.19-1.14,1.74-9.16,5.95-9.92,4.96Zm37.2-15.62s-3.62-6.69-5.72-5.45c-2.1,1.24-2.67,2.97-4.58,4.71-1.91,1.74-6.87,.25-6.87,.25,0,0,5.15,14.87,5.91,17.1,.76,2.23-1.14,5.21-2.29,6.2-1.14,.99-2.67,.25-4.01,.25s-4.2,.74-4.2,.74l-4.39,1.49s3.24-6.94,3.62-9.17c.38-2.23,.38-10.16,.38-10.16l5.34,12.64,3.62-1.74s-10.11-25.28-10.68-26.03c-.57-.74-1.53-4.96-1.53-6.2s-.95-3.22-.95-3.22c0,0,7.06,.25,12.02,3.97,4.96,3.72,13.35,8.18,13.92,9.17,.57,.99,.38,5.45,.38,5.45Z" style="fill:#999; stroke:#263238; stroke-linecap:round; stroke-linejoin:round;"></path><path d="M672.91,348.41l-10.3-5.45-4.2,1.98s4.96,2.97,8.39,4.21,6.1-.74,6.1-.74Z" style="fill:#999; stroke:#263238; stroke-linecap:round; stroke-linejoin:round;"></path></g></g></g><g><path d="M342.11,330.68c-23.81,0-43.1,28.43-43.1,63.5s19.3,63.5,43.1,63.5h44.02v-127h-44.02Z" style="fill:#263238; stroke:#263238; stroke-linecap:round; stroke-linejoin:round;"></path><g><ellipse cx="386.13" cy="394.18" rx="43.1" ry="63.5" style="fill:#5e5e5e; stroke:#263238; stroke-linecap:round; stroke-linejoin:round;"></ellipse><g><ellipse cx="389.13" cy="395.91" rx="36.08" ry="55.84" style="fill:#263238; stroke:#263238; stroke-linecap:round; stroke-linejoin:round;"></ellipse><path d="M381.17,341.44c-1.42,.49-2.8,1.11-4.15,1.85l6.05,7.09s12.22,7.38,11.71,11.2c-.51,3.82-4.07,8.15-5.6,9.68-1.53,1.53-9.93,6.62-9.93,6.62l-2.29,7.13s10.7-4.07,12.73-7.64c2.04-3.57,12.22-24.19,11.71-27.76-.51-3.57-1.78-5.09-1.78-5.09l-3.68-3.45c-.39-.12-.79-.23-1.19-.33l-13.58,.7Zm16.92,12.76l-11.54-9.28c-1.78,.47-3.23,.88-3.23,.88l3.06-1.02,.18,.14c2.46-.65,5.56-1.42,6.44-1.42,1.53,0,4.07,1.78,5.09,5.09s0,5.6,0,5.6Z" style="fill:#999; stroke:#263238; stroke-linecap:round; stroke-linejoin:round;"></path><path d="M373.4,443.07s9.42-2.8,10.7-3.57c1.27-.76,.25,3.82-1.53,5.86-1.78,2.04-3.31,2.8-3.31,2.8l-5.86-5.09Z" style="fill:#fff; stroke:#263238; stroke-linecap:round; stroke-linejoin:round;"></path><path d="M414.34,355.98l-.2,.51s-4.84-1.78-4.84-.25-3.31,5.35-4.07,5.86c-.76,.51-8.15,8.66-8.15,8.66l-11.71,14.26,29.28-21.14s-.25-3.56,2.29,5.86c2.55,9.42,2.04,14.77,2.04,15.53s-13.75,5.09-12.22,6.11c1.53,1.02,1.27,3.06,3.56,2.8,2.29-.25,12.48-2.04,12.48-2.04l-4.58,9.93v10.7s-14.01-8.91-21.9-10.44c-7.89-1.53-16.04-.25-16.04-.25l2.55,12.22s-6.88-8.15-8.15-9.17-3.31,.25-3.31,.25l-3.31,3.06s-1.27,10.44-3.31,12.22c-1.04,.91-2.81,1.69-4.3,2.23-1.3-3.32-3.34-10.12-3.34-10.12-1.02-3.82-.51-5.86-.51-5.86l8.4,1.78s6.11-6.37,6.37-7.13c.25-.76,.25-5.35-.51-7.64s-3.06-3.57-3.06-3.57l3.82-7.38-1.78-.76-4.33,9.17,.25,9.42-9.93-2.8c-.25-14.77,3.57-24.7,3.57-24.7l6.88-.76s2.55-.25,3.31,.25c.76,.51,5.09,10.7,5.09,10.7l1.02-2.55s-3.06-8.91-5.6-15.02-6.37-4.07-6.37-4.07c2.29-5.35,7.38-10.7,7.38-10.7l4.58,5.6,6.88-3.06-1.27-4.07-4.26-6.33c-13.98,7.7-23.98,28.34-23.98,52.62,0,10.14,1.76,19.63,4.81,27.82h0c.04,.12,.09,.23,.13,.34,.04,.11,.07,.22,.11,.32h0c6.29,16.37,17.82,27.36,31.02,27.36,19.93,0,36.08-25,36.08-55.84,0-15.65-4.16-29.79-10.87-39.93Zm-45.02,82.76c-1.02-1.02-5.6-8.15-5.6-8.15,0,0,5.86-5.09,7.38-6.88,1.53-1.78,2.04-13.75,2.04-13.75,0,0,8.91,12.22,10.44,16.3,1.53,4.07,.51,5.6-1.02,7.38-1.53,1.78-12.22,6.11-13.24,5.09Zm49.66-16.04s-4.84-6.88-7.64-5.6-3.56,3.06-6.11,4.84c-2.55,1.78-9.17,.25-9.17,.25,0,0,6.88,15.28,7.89,17.57s-1.53,5.35-3.06,6.37c-1.53,1.02-3.56,.25-5.35,.25s-5.6,.76-5.6,.76l-5.86,1.53s4.33-7.13,4.84-9.42c.51-2.29,.51-10.44,.51-10.44l7.13,12.99,4.84-1.78s-13.5-25.97-14.26-26.74c-.76-.76-2.04-5.09-2.04-6.37s-1.27-3.31-1.27-3.31c0,0,9.42,.25,16.04,4.07s17.83,8.4,18.59,9.42c.76,1.02,.51,5.6,.51,5.6Z" style="fill:#999; stroke:#263238; stroke-linecap:round; stroke-linejoin:round;"></path><path d="M400.9,394.18l-13.75-5.6-5.6,2.04s6.62,3.06,11.2,4.33c4.58,1.27,8.15-.76,8.15-.76Z" style="fill:#999; stroke:#263238; stroke-linecap:round; stroke-linejoin:round;"></path></g></g></g><path d="M318.38,217.97c-5.39,.97-10.6,2.69-15.54,5.06-3.43,1.65-8.6,3.96-16.28,7.07-18.74,7.59-73.06,43.65-77.8,45.54s-11.62,3.08-12.57,3.32-30.6,1.19-46.02,4.03c-15.42,2.85-32.5,12.1-41.27,17.08s-21.59,15.42-23.25,16.6c-1.66,1.19-11.62,3.32-14,8.07s-2.61,12.1-2.13,15.18,0,8.3,0,8.3c0,0-11.86,58.59-12.57,61.67-.71,3.08-5.69,14-3.8,16.37,1.9,2.37,7.83,7.35,15.18,8.54,7.35,1.19,29.65-.47,29.65-.47l71.64,9.01s21.11,11.39,30.6,11.86c9.49,.47,74.48,2.85,78.99,1.9,4.51-.95,59.07-8.07,59.07-8.07,0,0-4.27-34.4-.71-53.61,3.56-19.21,14.94-47.44,25.86-57.64,10.91-10.2,23.25-17.32,40.09-11.39,16.84,5.93,26.57,24.91,26.33,50.53-.24,25.62-9.96,60.96-9.96,60.96l45.07-9.25,124.77-28.23s44.12-4.74,44.12-5.46-5.93-26.09-6.88-44.83c-.95-18.74,12.33-44.83,21.82-56.22,9.49-11.39,22.53-8.78,30.36-2.37,7.83,6.4,11.15,28.7,11.15,28.7l2.61,4.27s-.71-20.16-4.27-32.97c-3.56-12.81-6.64-23.96-14.71-32.26-8.07-8.3-17.79-10.2-24.67-10.44s-21.59-3.32-23.48-4.03c-1.9-.71-98.92-25.38-98.92-25.38,0,0-46.49-9.96-103.9-9.49-53.84,.44-60.52,.06-104.58,8.03Z" style="fill:#D90404;"></path><path d="M290.04,451.25c1.73-2.6,10.4-30.34,10.4-30.34l-18.64,2.6-188.97-9.1-34.25-12.39c-.88,4.3-1.49,7.26-1.64,7.89-.71,3.08-5.69,14-3.8,16.37,1.9,2.37,7.83,7.35,15.18,8.54,7.35,1.19,29.65-.47,29.65-.47l71.64,9.01s21.11,11.39,30.6,11.86c9.22,.46,70.86,2.71,78.46,1.97,5.46-2.35,10.58-4.78,11.35-5.94Z" style="fill:#5e5e5e; stroke:#263238; stroke-linecap:round; stroke-linejoin:round;"></path><path d="M81,410.13l-19.22-3.6-3.88,6.8-2.27,9.06,3.24,1.62c3.24,1.62,4.53,5.18,7.45,7.12,2.91,1.94,8.74,3.24,15.54,2.27,6.8-.97,15.86-1.62,15.86-1.62l69.92,8.74,6.47-1.29,8.74-10.04-75.14-14.06-14.87-.72-11.84-4.28Z" style="fill:#263238; stroke:#263238; stroke-linecap:round; stroke-linejoin:round;"></path><path d="M498.66,214.8c-18.95-2.53-45.84-5.11-75.7-4.86-53.84,.44-60.52,.06-104.58,8.03-5.39,.97-10.6,2.69-15.54,5.06-3.43,1.65-8.6,3.96-16.28,7.07-16.52,6.69-60.7,35.51-74.17,43.53-.9,.69-5.69,4.28-9.33,5.57-4.03,1.42-5.93,2.61-4.27,3.32,1.66,.71,137.58,9.25,142.56,9.25s62.86-.71,62.86-.71c0,0,4.27,.24,8.78-3.32,4.51-3.56,27.99-41.27,38.19-53.37,10.2-12.1,29.65-17.55,43.88-19.21,1.27-.15,2.45-.26,3.59-.36Z" style="fill:#263238; stroke:#263238; stroke-linecap:round; stroke-linejoin:round;"></path><path d="M306.73,222.28s18.98-5.22,71.64-3.08c52.66,2.13,78.99,4.74,79.23,5.69,.24,.95-21.35,25.62-32.5,40.09-11.15,14.47-14.94,20.87-18.03,22.53-3.08,1.66-56.46,1.66-63.1,1.66s-128.81-6.88-130.7-7.59c-1.9-.71-3.32-2.13-1.66-4.27,1.66-2.13,62.62-39.85,74.96-45.78,12.33-5.93,20.16-9.25,20.16-9.25Z" style="fill:#263238; stroke:#696969; stroke-linecap:round; stroke-linejoin:round;"></path><path d="M625.78,244.81c-.89-.33-22.49-5.88-45.29-11.71-7.56,0-19.96-.48-29.91-3.23-15.42-4.27-45.78-10.91-67.13-4.74-21.35,6.17-37.95,32.97-37.95,32.97l-20.16,33.21s21.59,4.27,54.8-.95c33.21-5.22,97.73-23.01,109.12-29.18,11.39-6.17,12.33-13.05,12.33-13.05,0,0,31.33-.23,33.86-1.17-4.68-.88-8.73-1.8-9.66-2.15Z" style="fill:#5e5e5e; stroke:#263238; stroke-linecap:round; stroke-linejoin:round;"></path><path d="M581.66,253.59s2.13,.24,.47-2.85-18.5-15.42-47.92-19.69c-29.41-4.27-43.41-4.27-54.32,.47-10.91,4.74-29.89,27.52-29.89,27.52l-19.45,30.6s26.33,1.19,52.66-2.61c26.33-3.8,83.5-21.82,90.61-26.09,7.12-4.27,7.83-7.35,7.83-7.35Z" style="fill:#263238; stroke:#263238; stroke-linecap:round; stroke-linejoin:round;"></path><path d="M440.56,273.9l-10.01,15.74s5.66,.25,14.36,.15l-4.35-15.89Z" style="fill:#5e5e5e; stroke:#263238; stroke-linecap:round; stroke-linejoin:round;"></path><path d="M557.23,234.85s23.96,4.98,42.7,13.28" style="fill:none; stroke:#263238; stroke-linecap:round; stroke-linejoin:round;"></path><path d="M682.15,271.8c-2.09-4.66-4.67-8.87-8.22-12.52-.48-.49-.96-.95-1.44-1.4-3.46,1.38-8.76,3.81-8.76,4.48,0,.95,4.27,1.9,10.44,4.74,3.14,1.45,5.96,3.26,7.98,4.69Z" style="fill:#263238; stroke:#263238; stroke-linecap:round; stroke-linejoin:round;"></path><path d="M460.97,303.13s-4.04,1.65-4.04,3.67,0,2.57,2.02,2.94,15.23-.18,17.8-.73c2.57-.55,4.59-2.39,4.04-4.04-.55-1.65-.37-2.39-2.02-3.12-1.65-.73-6.06,0-10.1,.37-4.04,.37-7.71,.92-7.71,.92Z" style="fill:#263238; stroke:#263238; stroke-linecap:round; stroke-linejoin:round;"></path><path d="M158.18,312.16s-15.09,3.95-25.77,14.16c-10.68,10.21-13.46,19.5-7.66,20.89,5.8,1.39,34.12,5.34,43.18,.7,9.05-4.64,30.64-19.03,40.39-22.52,9.75-3.48,14.16-6.73,12.54-7.89-1.62-1.16-50.37-6.96-62.68-5.34Z" style="fill:#263238;"></path><path d="M71.66,324.75c-2.37,4.74-2.61,12.1-2.13,15.18,.47,3.08,0,8.3,0,8.3,0,0-9.58,47.31-12.03,59.14,2.12,5.62,10.08,12.03,12.71,13.66,3.02,1.86,70.1,14.86,112.35,14.16,42.25-.7,109.34-3.02,110.73-3.25s1.62-.23,4.18-2.55c2.55-2.32,22.28-55.94,29.95-72.19,7.66-16.25,12.07-22.52,5.34-28.09-6.73-5.57-35.05,3.25-41.78,5.34-6.73,2.09-69.18,22.28-76.6,22.98-7.43,.7-43.18,.7-43.18,.7l-76.14-5.34s-13-9.05-15.32-18.11c-2.32-9.05,5.93-17.99,5.93-17.99-1.66,1.19-11.62,3.32-14,8.07Z" style="fill:#a6a6a6; stroke:#263238; stroke-linecap:round; stroke-linejoin:round;"></path><path d="M332.75,329.11c-6.73-5.57-35.05,3.25-41.78,5.34-6.73,2.09-69.18,22.28-76.6,22.98-7.43,.7-45.06,1.74-45.06,1.74l-74.26-6.38s-13-9.05-15.32-18.11c-2.32-9.05,5.93-17.99,5.93-17.99-1.66,1.19-11.62,3.32-14,8.07s-2.61,12.1-2.13,15.18c.16,1.04,.21,2.33,.21,3.57l.24,.22s7.43,16.02,19.73,18.34c12.3,2.32,92.62,11.61,113.28,9.52,20.66-2.09,110.26-19.73,110.26-19.73,0,0,1.86-2.32,4.64-3.02,2.47-.62,11.11-1.6,14.99-3.1,3.78-8.23,4.72-12.61-.14-16.63Z" style="fill:#d9d9d9; stroke:#263238; stroke-linecap:round; stroke-linejoin:round;"></path><path d="M83.6,359.68c1.87,1.12,3.91,1.97,6.1,2.39,11.95,2.25,88.02,11.07,111.33,9.67,1.68-2.56,5.99-8.51,13.09-14.29-7.88,.68-44.82,1.72-44.82,1.72l-63.68-5.64c-9.18-.64-17.74-5.25-22.97-12.82-.42-.6-.81-1.22-1.17-1.84,.93,3.59,2.81,11.5,2.58,15.69-.11,1.89-.28,3.64-.47,5.12Z" style="fill:#263238; stroke:#263238; stroke-linecap:round; stroke-linejoin:round;"></path><path d="M206.39,364.84c-1.46,.15-3.35,.25-5.82,.25-10.19,0-105.41-8.05-109.2-9.24-3.15-.98-6.45-4.09-7.48-5.11,.17,1.43,.25,2.75,.19,3.82,0,0,2.08,2.47,5.4,3.65,3.01,1.08,97.05,8.4,114.31,9.74,.75-.95,1.62-2,2.61-3.12Z" style="fill:#bababa; stroke:#263238; stroke-linecap:round; stroke-linejoin:round;"></path><path d="M332.49,345.73l-14.99,3.1-4.64,3.02s.67,5.13-4.26,8.52c-4.93,3.39-2.48,4.97-25.58,8.97-23.11,4.01-84.72,24.65-84.72,24.65,0,0-20.03,23.11-23.72,25.26-3.7,2.16-4.62,2.46-6.16,2.46s-81.33-9.86-85.65-10.47c-4.31-.62-3.39,1.85-4.31-.62-.92-2.46-3.39-41.9-4.31-46.83-.6-3.2-2.97-9.51-4.78-14.19-.58,5.1-9.46,48.03-11.38,58.2,2.12,5.62,9.2,11.6,11.84,13.22,3.02,1.86,70.1,14.86,112.35,14.16,42.25-.7,109.34-3.02,110.73-3.25,1.39-.23,1.62-.23,4.18-2.55,2.55-2.32,22.28-55.94,29.95-72.19,2.14-4.53,4.02-8.28,5.48-11.46Z" style="fill:#D90404;"></path><g><path d="M329.82,346.37l-11.93,2.47-4.64,3.02s.12,3.5-2.59,6.59c-3.54,4.04-4.41,5.85-20.94,9.64-2.52,9.53-8.4,33.13-5.7,36.07,3.39,3.7,12.94,12.63,12.94,12.63l32.87-70.43Z" style="fill:#263238; stroke:#263238; stroke-linecap:round; stroke-linejoin:round;"></path><polygon points="317.13 372.56 286.01 382.42 314.05 377.18 317.13 372.56" style="fill:#999; stroke:#263238; stroke-linecap:round; stroke-linejoin:round;"></polygon><polygon points="310.04 388.58 285.05 395.64 307.27 393.2 310.04 388.58" style="fill:#999; stroke:#263238; stroke-linecap:round; stroke-linejoin:round;"></polygon><path d="M328.95,346.55l-11.06,2.29-.39,.11c-1.44,.4-2.73,1.2-3.73,2.32l-.53,.59s-.14,3.5-2.59,6.59c-3.33,4.21-4.41,5.85-20.94,9.64-.36,1.35-.78,2.98-1.24,4.79,4.1-.9,23.64-5.45,29.42-11.23,4.48-4.48,8.8-11.31,11.05-15.1Z" style="fill:#bababa; stroke:#263238; stroke-linecap:round; stroke-linejoin:round;"></path></g><path d="M69.59,355.79s3.39,7.39,3.7,12.94c.31,5.55,.92,20.64,.92,20.64l-12.32,7.39,7.7-40.98Z" style="fill:#263238; stroke:#263238; stroke-linecap:round; stroke-linejoin:round;"></path><line x1="82.53" y1="363.19" x2="80.37" y2="405.39" style="fill:none; stroke:#fff; stroke-linecap:round; stroke-linejoin:round;"></line><line x1="194.06" y1="375.2" x2="171.26" y2="418.64" style="fill:none; stroke:#fff; stroke-linecap:round; stroke-linejoin:round;"></line><path d="M177.08,386.47c-34.2-.62-90.95-7.38-90.95-7.38l.09,2.58-1.23,14.48-.31,3.7s59.29,9.04,83.93,8.11l1.72-3.8,5.24-14.79,1.51-2.9Z" style="fill:#fff; opacity:.49;"></path><path d="M692.91,324.51s-.5-14.05-2.73-26.14c-3.08-5.44-7.87-11.21-15.2-14.67-16.94-8.01-35.74,12.32-41.59,20.03-5.85,7.7-10.47,7.39-10.47-6.78s16.94-26.8,16.94-26.8c0,0-191.63,60.08-193.79,60.38-2.16,.31-3.08,12.32-11.09,13.86-8.01,1.54-8.01-18.18-37.89-25.57-29.88-7.39-55.15,34.81-60.38,42.82-5.24,8.01-7.39,4.93-7.39,4.93l-3.39-4.93s-32.04,76.71-36.66,84.72c-2.05,3.55-9.35,7.58-16.85,10.97,3.6,0,6.06-.06,6.82-.22,4.51-.95,59.07-8.07,59.07-8.07,0,0-4.27-34.4-.71-53.61s14.94-47.44,25.86-57.64c10.91-10.2,23.25-17.32,40.09-11.39,16.84,5.93,26.57,24.91,26.33,50.53-.24,25.62-9.96,60.96-9.96,60.96l45.07-9.25,124.77-28.23s44.12-4.74,44.12-5.46-5.93-26.09-6.88-44.83,12.33-44.83,21.82-56.22c9.49-11.39,22.53-8.78,30.36-2.37,7.83,6.4,11.15,28.7,11.15,28.7l2.61,4.27Z" style="opacity:.3;"></path><path d="M603.5,299.1s-25.88,71.48-28.34,73.32-45.6,12.94-45.6,12.94c0,0,39.43-11.09,43.44-17.25s30.5-69.01,30.5-69.01Z" style="fill:#fff; opacity:.35;"></path><path d="M589.72,400.42s44.12-4.74,44.12-5.46-5.93-26.09-6.88-44.83c0-.19,0-.39-.02-.58-5.75,1.2-15.62,3.48-18.83,5.62-4.62,3.08-13.86,12.02-38.51,20.64-24.65,8.63-121.08,29.88-121.08,29.88l-8.01-7.7-12.77,2.3c-2.92,19.61-7.87,37.6-7.87,37.6l45.07-9.25,124.77-28.23Z" style="fill:#5e5e5e; stroke:#263238; stroke-linecap:round; stroke-linejoin:round;"></path><path d="M457.47,425.11c2.46,.92,5.55,0,5.55,0,0,0,108.14-24.65,113.99-27.73,5.85-3.08,26.5-38.82,31.12-42.21-4.62,3.08-13.86,12.02-38.51,20.64-24.65,8.63-121.08,29.88-121.08,29.88l-8.01-7.7s14.48,26.19,16.94,27.11Z" style="fill:#263238; stroke:#263238; stroke-linecap:round; stroke-linejoin:round;"></path><path d="M336.19,418.68l-36.71,5.24c-4.84,11.13-8.81,19.99-10.22,22.44-2.05,3.55-9.35,7.58-16.85,10.97,.44,0,.86,0,1.26,0h.06c.8,0,1.53-.01,2.18-.02h.1c.28,0,.53-.01,.78-.02h.15c.53-.02,.98-.04,1.35-.07,.05,0,.09,0,.13-.01,.13-.01,.25-.02,.36-.03,.04,0,.08,0,.12-.01,.13-.02,.24-.03,.33-.05,4.51-.95,59.07-8.07,59.07-8.07,0,0-1.83-14.77-2.1-30.37Z" style="fill:#263238; stroke:#263238; stroke-linecap:round; stroke-linejoin:round;"></path><g><path d="M441.67,381.84c-.43,5.68-.84,9.07-.84,9.07" style="fill:none; stroke:#263238; stroke-linecap:round; stroke-linejoin:round;"></path><path d="M429.43,295.1s10.78,14.17,12.63,42.21c.95,14.37,.6,28.1,.04,38.06" style="fill:none; stroke:#263238; stroke-linecap:round; stroke-linejoin:round;"></path><path d="M582.01,277.94c2.47,4.36,4.55,10.34,4.55,18.08,0,19.1-20.64,70.24-26.5,77.64" style="fill:none; stroke:#263238; stroke-linecap:round; stroke-linejoin:round;"></path><path d="M573.93,268.6s2.51,1.65,5.29,5.18" style="fill:none; stroke:#263238; stroke-linecap:round; stroke-linejoin:round;"></path><path d="M373.54,295.84c4.88-1,10.03-1.91,15.47-2.71" style="fill:none; stroke:#263238; stroke-linecap:round; stroke-linejoin:round;"></path><path d="M296.46,332.53s17.23-22.57,69.48-35" style="fill:none; stroke:#263238; stroke-linecap:round; stroke-linejoin:round;"></path></g><path d="M154.6,282.29c-2.67,.86-5.04,1.91-6.9,3.2-12.62,8.8-40.54,40.54-44.74,48.18,0,0,30.98-27.15,48.18-36.33,17.21-9.18,45.05-18.37,45.05-18.37-.86,.22-25.55,1.02-41.6,3.32Z" style="opacity:.3;"></path><path d="M222.65,345.91s68.07-46.27,132.7-50.86c0,0-36.33,1.15-78.4,15.3-42.07,14.15-54.3,35.56-54.3,35.56Z" style="fill:#fff; opacity:.61;"></path><path d="M289.72,368.09c-.9,.46-3.16,.71-6.32,1.26-23.11,4.01-84.72,24.65-84.72,24.65,0,0-20.03,23.11-23.72,25.26s-4.62,2.46-6.16,2.46-81.33-9.86-85.65-10.47c-4.31-.62-3.39,1.85-4.31-.62-.92-2.46-3.39-41.9-4.31-46.83-.6-3.2-3.28-10.44-5.09-15.11-.27,1.32-1.11,5.5-2.24,11.08l7.11,59.44,93.73,12.65,114.67-31.93,7.02-31.84Z" style="opacity:.3;"></path><path d="M378.37,219.19c-52.66-2.13-71.64,3.08-71.64,3.08,0,0-7.83,3.32-20.16,9.25-12.33,5.93-73.3,43.65-74.96,45.78-1.66,2.13-.24,3.56,1.66,4.27,.39,.15,5.88,.55,14.4,1.11,60.37-15.7,162.73-42.31,225.74-58.68-9.33-1.23-34.3-3.17-75.04-4.82Z" style="fill:#fff; opacity:.24; stroke:#263238; stroke-linecap:round; stroke-linejoin:round;"></path><path d="M252.12,436.31l-44.67,18.13,62.8,.97s13.92-5.83,16.51-8.74c2.59-2.91,5.83-11.33,5.83-11.33l-40.46,.97Z" style="fill:#263238; stroke:#263238; stroke-linecap:round; stroke-linejoin:round;"></path><path d="M158.18,312.16s-15.09,3.95-25.77,14.16c-7.55,7.22-11.14,13.97-10.55,17.8l88.13-28.46c-15.5-2.02-43-4.67-51.81-3.5Z" style="fill:#fff; opacity:.24; stroke:#263238; stroke-linecap:round; stroke-linejoin:round;"></path><path d="M320.13,346.04s4.83-8.16-2.72-10.27c-7.55-2.11-87.3,20.54-87.3,20.54l58.6-19.03s35.04-9.67,40.78-7.55c5.74,2.11,5.44,6.95,1.51,14.8l-10.88,1.51Z" style="fill:#fff;"></path><path d="M313.79,337.28s-16.31,2.42-17.82,3.93-2.11,9.06,0,9.67c2.11,.6,10.87,.6,14.5-.91s4.83-4.23,4.83-6.34,0-7.25-1.51-6.34Z" style="fill:#fff;"></path><path d="M73.33,326.71l3.62,22.05-7.44-8.83s3.79,7.38,6.91,11.21c3.13,3.82,6.25,6.95,6.25,6.95,0,0-.52-6.43-.87-10.94-.35-4.52-4.86-14.24-4.17-18.76,.69-4.52,3.3-8.16,3.3-8.16,0,0-8.12,1.86-7.62,6.49Z" style="fill:#fff;"></path><path d="M289.72,368.09s-15.35,3.02-27.04,6.01" style="fill:none; stroke:#263238; stroke-linecap:round; stroke-linejoin:round;"></path><path d="M249.08,377.9l-50.41,16.09s-23.82,27.95-27.9,27.68" style="fill:none; stroke:#263238; stroke-linecap:round; stroke-linejoin:round;"></path><line x1="85.96" y1="411.07" x2="161.27" y2="420.59" style="fill:none; stroke:#263238; stroke-linecap:round; stroke-linejoin:round;"></line><path d="M70.72,351.76s3.1,8.8,3.8,12.04c.7,3.24,3.7,41.87,3.7,41.87" style="fill:none; stroke:#263238; stroke-linecap:round; stroke-linejoin:round;"></path><path d="M318.38,217.97c-5.39,.97-10.6,2.69-15.54,5.06-3.43,1.65-8.6,3.96-16.28,7.07-18.74,7.59-73.06,43.65-77.8,45.54s-11.62,3.08-12.57,3.32-30.6,1.19-46.02,4.03c-15.42,2.85-32.5,12.1-41.27,17.08s-21.59,15.42-23.25,16.6c-1.66,1.19-11.62,3.32-14,8.07s-2.61,12.1-2.13,15.18,0,8.3,0,8.3c0,0-11.86,58.59-12.57,61.67-.71,3.08-5.69,14-3.8,16.37,1.9,2.37,7.83,7.35,15.18,8.54,7.35,1.19,29.65-.47,29.65-.47l71.64,9.01s21.11,11.39,30.6,11.86c9.49,.47,74.48,2.85,78.99,1.9,4.51-.95,59.07-8.07,59.07-8.07,0,0-4.27-34.4-.71-53.61,3.56-19.21,14.94-47.44,25.86-57.64,10.91-10.2,23.25-17.32,40.09-11.39,16.84,5.93,26.57,24.91,26.33,50.53-.24,25.62-9.96,60.96-9.96,60.96l45.07-9.25,124.77-28.23s44.12-4.74,44.12-5.46-5.93-26.09-6.88-44.83c-.95-18.74,12.33-44.83,21.82-56.22,9.49-11.39,22.53-8.78,30.36-2.37,7.83,6.4,11.15,28.7,11.15,28.7l2.61,4.27s-.71-20.16-4.27-32.97c-3.56-12.81-6.64-23.96-14.71-32.26-8.07-8.3-17.79-10.2-24.67-10.44s-21.59-3.32-23.48-4.03c-1.9-.71-98.92-25.38-98.92-25.38,0,0-46.49-9.96-103.9-9.49-53.84,.44-60.52,.06-104.58,8.03Z" style="fill:none; stroke:#263238; stroke-linecap:round; stroke-linejoin:round;"></path></g></g></svg>
